<svg width="40" height="41" viewBox="0 0 40 41" fill="none" xmlns="http://www.w3.org/2000/svg">
<path d="M18.625 12.9375V28.0625H28.25C28.6281 28.0625 28.9375 27.7531 28.9375 27.375V13.625C28.9375 13.2469 28.6281 12.9375 28.25 12.9375H18.625ZM9 13.625C9 12.1082 10.2332 10.875 11.75 10.875H28.25C29.7668 10.875 31 12.1082 31 13.625V27.375C31 28.8918 29.7668 30.125 28.25 30.125H11.75C10.2332 30.125 9 28.8918 9 27.375V13.625ZM11.75 14.6562C11.75 15.2277 12.2098 15.6875 12.7812 15.6875H14.8438C15.4152 15.6875 15.875 15.2277 15.875 14.6562C15.875 14.0848 15.4152 13.625 14.8438 13.625H12.7812C12.2098 13.625 11.75 14.0848 11.75 14.6562ZM12.7812 17.75C12.2098 17.75 11.75 18.2098 11.75 18.7812C11.75 19.3527 12.2098 19.8125 12.7812 19.8125H14.8438C15.4152 19.8125 15.875 19.3527 15.875 18.7812C15.875 18.2098 15.4152 17.75 14.8438 17.75H12.7812ZM11.75 22.9062C11.75 23.4777 12.2098 23.9375 12.7812 23.9375H14.8438C15.4152 23.9375 15.875 23.4777 15.875 22.9062C15.875 22.3348 15.4152 21.875 14.8438 21.875H12.7812C12.2098 21.875 11.75 22.3348 11.75 22.9062Z" fill="white"/>
</svg>
